<svg width="48" height="48" viewBox="0 0 48 48" fill="none" xmlns="http://www.w3.org/2000/svg">
<g clip-path="url(#clip0_5712_9252)">
<path fill-rule="evenodd" clip-rule="evenodd" d="M33.7546 7H14.2454C10.247 7 7.00342 10.2436 7.00342 14.242V33.7614C7.00342 37.7598 10.2436 41 14.2454 41H33.7546C37.753 41 40.9966 37.7598 40.9966 33.7614V14.242C40.9966 10.2436 37.753 7 33.7546 7ZM28.4778 36.2774L26.584 30.698H21.2903L19.4475 36.2773H19.4474L19.4474 36.2774H15.6088L22.1334 17.1524H22.1335L22.1335 17.1523H25.8633L32.3913 36.2773H32.3912L32.3912 36.2774H28.4778ZM31.3916 14.6126L31.2624 14.5786C30.2785 14.3087 29.2588 14.1212 28.2148 14.0185C27.5885 13.9569 26.9535 13.9258 26.3123 13.9258C26.3123 13.9258 26.3123 13.9258 26.3123 13.9258C21.9263 13.9258 17.8871 15.381 15.5037 17.812L14.9767 18.3424L14.9766 18.3422L14.9764 18.3424L13.7932 14.871L14.1026 14.6772C16.9688 12.8718 20.821 11.8756 24.9418 11.8756C25.1195 11.8756 25.2968 11.8775 25.4738 11.8813C26.1735 11.8962 26.8675 11.9407 27.5512 12.0137C29.462 12.2177 31.293 12.6449 32.9457 13.2764L34.2071 13.7592L31.3919 14.6126L31.3917 14.6126L31.3916 14.6126ZM22.2324 27.5223H25.6593L24.2143 23.3403C24.109 23.0379 24.0172 22.7423 23.9289 22.4535C23.8439 22.739 23.7556 23.0244 23.657 23.3098L22.2324 27.5223Z" fill="#8D9194"/>
</g>
<defs>
<clipPath id="clip0_5712_9252">
<rect width="34" height="34" fill="white" transform="translate(7 7)"/>
</clipPath>
</defs>
</svg>
