<svg width="48" height="48" viewBox="0 0 48 48" fill="none" xmlns="http://www.w3.org/2000/svg">
  <path fill-rule="evenodd" clip-rule="evenodd" d="M24 42C33.9411 42 42 33.9411 42 24C42 14.0589 33.9411 6 24 6C14.0589 6 6 14.0589 6 24C6 33.9411 14.0589 42 24 42ZM22.741 22.9484C22.3468 23.3353 21.7136 23.3293 21.3268 22.9352L17.286 18.8178C16.9043 18.4288 16.9043 17.8059 17.286 17.4169L21.3268 13.2996C21.7136 12.9054 22.3468 12.8994 22.741 13.2863C23.1351 13.6731 23.1411 14.3063 22.7542 14.7004L20.3823 17.1174L29.1248 17.1173C31.8622 17.1173 34.2525 18.97 34.9352 21.6208L34.9686 21.7506C35.1064 22.2854 34.7845 22.8306 34.2497 22.9684C33.7148 23.1061 33.1696 22.7842 33.0319 22.2494L32.9984 22.1197C32.5433 20.3524 30.9497 19.1173 29.1248 19.1173L20.3823 19.1174L22.7542 21.5343C23.1411 21.9285 23.1351 22.5616 22.741 22.9484ZM13.7642 24.7935C14.3009 24.6632 14.8416 24.9926 14.972 25.5292L15.0442 25.8267C15.4798 27.62 17.0857 28.8826 18.9312 28.8826H27.7807L25.4088 26.4657C25.0219 26.0715 25.0279 25.4384 25.4221 25.0515C25.8162 24.6647 26.4494 24.6707 26.8362 25.0648L30.877 29.1822C31.2587 29.5711 31.2587 30.1941 30.877 30.5831L26.8362 34.7004C26.4494 35.0946 25.8162 35.1005 25.4221 34.7137C25.0279 34.3269 25.0219 33.6937 25.4088 33.2995L27.7807 30.8826H18.9312C16.163 30.8826 13.7541 28.9888 13.1007 26.2987L13.0285 26.0013C12.8981 25.4646 13.2275 24.9239 13.7642 24.7935Z" fill="#7D8184"/>
</svg>
