<svg width="24" height="24" viewBox="0 0 24 24" fill="none" xmlns="http://www.w3.org/2000/svg">
<path fill-rule="evenodd" clip-rule="evenodd" d="M17.5 9.25C17.5 13.8063 13.8063 17.5 9.25 17.5C4.69365 17.5 1 13.8063 1 9.25C1 4.69366 4.69365 1 9.25 1C13.8063 1 17.5 4.69366 17.5 9.25ZM10.129 10.01V10.0113V10.0127C12.1385 9.92247 13.6386 9.57235 13.6386 9.1532C13.6386 8.73405 12.1398 8.38389 10.129 8.29369V9.6625C10.0706 9.66782 9.7576 9.69435 9.13157 9.69435C8.6103 9.69435 8.23232 9.6718 8.101 9.6625V8.29236C6.08755 8.38123 4.58346 8.73273 4.58346 9.15187C4.58346 9.5723 6.08622 9.92247 8.101 10.0113V10.01C8.23099 10.0167 8.59839 10.0312 9.12231 10.0312C9.7775 10.0312 10.072 10.014 10.129 10.01ZM10.129 6.9262V8.15179L10.1303 8.15312C12.4064 8.25789 14.1174 8.71018 14.1174 9.25C14.1174 9.79115 12.4064 10.2422 10.1303 10.3469V14.2756H8.10233V10.3469C5.82364 10.2408 4.10862 9.78983 4.10862 9.24867C4.10862 8.70752 5.82231 8.25656 8.10233 8.15179V6.9262H5.29705V5.05735H12.9343V6.9262H10.129Z" fill="#26A17B"/>
<path d="M17 23C20.3137 23 23 20.3137 23 17C23 13.6863 20.3137 11 17 11C13.6863 11 11 13.6863 11 17C11 20.3137 13.6863 23 17 23Z" fill="#D7D7D7"/>
<path d="M16.9991 12.2L16.9336 12.4187V18.765L16.9991 18.8292L19.9977 17.0879L16.9991 12.2Z" fill="#343434"/>
<path d="M16.9996 12.2L14.001 17.0879L16.9996 18.8292V15.7489V12.2Z" fill="#8C8C8C"/>
<path d="M16.9998 19.3871L16.9629 19.4312V21.692L16.9998 21.7979L20.0003 17.6466L16.9998 19.3871Z" fill="#3C3C3B"/>
<path d="M16.9997 21.7979V19.3871L14.001 17.6466L16.9997 21.7979Z" fill="#8C8C8C"/>
<path d="M17 18.8293L19.9986 17.088L17 15.749V18.8293Z" fill="#141414"/>
<path d="M14.001 17.088L16.9996 18.8294V15.749L14.001 17.088Z" fill="#393939"/>
</svg>
