<svg width="48" height="48" viewBox="0 0 48 48" fill="none" xmlns="http://www.w3.org/2000/svg">
<path fill-rule="evenodd" clip-rule="evenodd" d="M36 21C36 21.6046 35.9642 22.2009 35.8947 22.7868C39.4826 24.3054 42 27.8587 42 32C42 37.5229 37.5229 42 32 42C27.8587 42 24.3054 39.4826 22.7868 35.8947C22.2009 35.9642 21.6046 36 21 36C12.7157 36 6 29.2843 6 21C6 12.7157 12.7157 6 21 6C29.2843 6 36 12.7157 36 21ZM22.6006 22.9944V28.5787C22.4178 29.0807 22.2741 29.6016 22.1731 30.1375H18.9133V22.9944C14.7703 22.8015 11.652 21.9815 11.652 20.9976C11.652 20.0137 14.7678 19.1938 18.9133 19.0033V16.7749H13.8128V13.377H27.6987V16.7749H22.5982V19.0033L22.6006 19.0057C26.7388 19.1962 29.8497 20.0185 29.8497 21C29.8497 21.9839 26.7388 22.8039 22.6006 22.9944ZM22.5982 22.3818V22.3843V22.3867C26.2518 22.2227 28.9792 21.5861 28.9792 20.824C28.9792 20.0619 26.2542 19.4252 22.5982 19.2612V21.75C22.4921 21.7597 21.9229 21.8079 20.7847 21.8079C19.8369 21.8079 19.1497 21.7669 18.9109 21.75V19.2588C15.2501 19.4204 12.5154 20.0595 12.5154 20.8216C12.5154 21.586 15.2477 22.2227 18.9109 22.3843V22.3818C19.1472 22.3939 19.8152 22.4204 20.7678 22.4204C21.9591 22.4204 22.4945 22.3891 22.5982 22.3818ZM31.9987 24L31.9982 24.0007L31.9978 24L31.9969 24.0029L27.001 32.1466L27.0011 32.1467L27.001 32.1467L31.9971 35.048L31.9978 35.0487L31.998 35.0486L31.998 35.0486V35.0488L31.9983 35.0487L31.9987 35.0489V35.0488V35.0485L36.9957 32.1467L36.9955 32.1466L36.9956 32.1466L31.9987 24.0015V24ZM27.001 33.0776L31.9973 39.9944L31.998 39.9964L31.9984 39.9959L31.9988 39.9964V39.9954L36.9988 33.0776L31.9984 35.9782L27.001 33.0776Z" fill="#8D9194"/>
</svg>
